#
#
#

mtllib cube.mtl


#
# pCube1 Mesh
#
g pCube1 Mesh


#
# pCube1 Mesh_initialShadingGroup
#
usemtl pCube1 Mesh_initialShadingGroup

v 53.921997 -46.160912 76.226295
v 95.656105 -46.160912 76.226295
v 95.656105 -25.849913 76.226295
v 53.921997 -25.849913 76.226295
v 95.656105 -25.849913 62.430225
v 53.921997 -25.849913 62.430225
v 95.656105 -46.160912 62.430225
v 53.921997 -46.160912 62.430225
v 53.921997 -46.160912 76.226295
v 95.656105 -46.160912 76.226295
v 95.656105 -25.849913 76.226295
v 53.921997 -25.849913 76.226295
v 95.656105 -25.849913 62.430225
v 53.921997 -25.849913 62.430225
v 95.656105 -46.160912 62.430225
v 53.921997 -46.160912 62.430225
vn 0.000000 0.000000 1.000000
vn 0.000000 1.000000 0.000000
vn 0.000000 0.000000 -1.000000
vn 0.000000 -1.000000 0.000000
vn 1.000000 0.000000 0.000000
vn -1.000000 0.000000 0.000000
vt 0.375000 0.000000
vt 0.625000 0.000000
vt 0.625000 0.250000
vt 0.375000 0.250000
vt 0.625000 0.500000
vt 0.375000 0.500000
vt 0.625000 0.750000
vt 0.375000 0.750000
vt 0.625000 1.000000
vt 0.375000 1.000000
vt 0.875000 0.000000
vt 0.875000 0.250000
vt 0.125000 0.000000
vt 0.125000 0.250000
f 1/1/1 2/2/1 3/3/1 4/4/1
f 4/4/2 3/3/2 5/5/2 6/6/2
f 6/6/3 5/5/3 7/7/3 8/8/3
f 8/8/4 7/7/4 2/9/4 1/10/4
f 2/2/5 7/11/5 5/12/5 3/3/5
f 8/13/6 1/1/6 4/4/6 6/14/6
f 9/1/1 10/2/1 11/3/1 12/4/1
f 12/4/2 11/3/2 13/5/2 14/6/2
f 14/6/3 13/5/3 15/7/3 16/8/3
f 16/8/4 15/7/4 10/9/4 9/10/4
f 10/2/5 15/11/5 13/12/5 11/3/5
f 16/13/6 9/1/6 12/4/6 14/14/6
